<mxfile host="app.diagrams.net" modified="2022-02-17T04:40:43.288Z" agent="5.0 (Macintosh; Intel Mac OS X 10_15_7) AppleWebKit/605.1.15 (KHTML, like Gecko) Version/15.2 Safari/605.1.15" etag="ySr8NXWSlFzYdlfjKSdW" version="16.5.6" type="github">
  <diagram id="EpTohllSlvy0A7Q0AJ4Q" name="Page-1">
    <mxGraphModel dx="1821" dy="912" grid="1" gridSize="10" guides="1" tooltips="1" connect="1" arrows="1" fold="1" page="1" pageScale="1" pageWidth="827" pageHeight="1169" math="0" shadow="0">
      <root>
        <mxCell id="0" />
        <mxCell id="1" parent="0" />
        <mxCell id="oMaaJjmdquRnmxGJ-2f0-72" value="" style="rounded=1;whiteSpace=wrap;html=1;strokeColor=#b85450;fillColor=#f8cecc;" vertex="1" parent="1">
          <mxGeometry x="-185" y="150" width="685" height="150" as="geometry" />
        </mxCell>
        <mxCell id="oMaaJjmdquRnmxGJ-2f0-71" value="" style="rounded=1;whiteSpace=wrap;html=1;strokeColor=#6c8ebf;fillColor=#dae8fc;" vertex="1" parent="1">
          <mxGeometry x="-520" y="130" width="210" height="500" as="geometry" />
        </mxCell>
        <mxCell id="oMaaJjmdquRnmxGJ-2f0-1" value="InitSystem" style="swimlane;fontStyle=0;childLayout=stackLayout;horizontal=1;startSize=30;horizontalStack=0;resizeParent=1;resizeParentMax=0;resizeLast=0;collapsible=1;marginBottom=0;fillColor=#fff2cc;strokeColor=#d6b656;" vertex="1" parent="1">
          <mxGeometry x="-140" y="180" width="120" height="90" as="geometry" />
        </mxCell>
        <mxCell id="oMaaJjmdquRnmxGJ-2f0-2" value="Name" style="text;strokeColor=#d6b656;fillColor=#fff2cc;align=left;verticalAlign=middle;spacingLeft=4;spacingRight=4;overflow=hidden;points=[[0,0.5],[1,0.5]];portConstraint=eastwest;rotatable=0;" vertex="1" parent="oMaaJjmdquRnmxGJ-2f0-1">
          <mxGeometry y="30" width="120" height="30" as="geometry" />
        </mxCell>
        <mxCell id="oMaaJjmdquRnmxGJ-2f0-3" value="UpdateSystem()" style="text;strokeColor=#d6b656;fillColor=#fff2cc;align=left;verticalAlign=middle;spacingLeft=4;spacingRight=4;overflow=hidden;points=[[0,0.5],[1,0.5]];portConstraint=eastwest;rotatable=0;" vertex="1" parent="oMaaJjmdquRnmxGJ-2f0-1">
          <mxGeometry y="60" width="120" height="30" as="geometry" />
        </mxCell>
        <mxCell id="oMaaJjmdquRnmxGJ-2f0-5" value="ISystem" style="swimlane;fontStyle=0;childLayout=stackLayout;horizontal=1;startSize=30;horizontalStack=0;resizeParent=1;resizeParentMax=0;resizeLast=0;collapsible=1;marginBottom=0;fillColor=#d5e8d4;strokeColor=#82b366;" vertex="1" parent="1">
          <mxGeometry x="40" y="50" width="110" height="90" as="geometry" />
        </mxCell>
        <mxCell id="oMaaJjmdquRnmxGJ-2f0-6" value="Name" style="text;strokeColor=#82b366;fillColor=#d5e8d4;align=left;verticalAlign=middle;spacingLeft=4;spacingRight=4;overflow=hidden;points=[[0,0.5],[1,0.5]];portConstraint=eastwest;rotatable=0;" vertex="1" parent="oMaaJjmdquRnmxGJ-2f0-5">
          <mxGeometry y="30" width="110" height="30" as="geometry" />
        </mxCell>
        <mxCell id="oMaaJjmdquRnmxGJ-2f0-7" value="UpdateSystem()" style="text;strokeColor=#82b366;fillColor=#d5e8d4;align=left;verticalAlign=middle;spacingLeft=4;spacingRight=4;overflow=hidden;points=[[0,0.5],[1,0.5]];portConstraint=eastwest;rotatable=0;" vertex="1" parent="oMaaJjmdquRnmxGJ-2f0-5">
          <mxGeometry y="60" width="110" height="30" as="geometry" />
        </mxCell>
        <mxCell id="oMaaJjmdquRnmxGJ-2f0-9" value="SimulationSystem" style="swimlane;fontStyle=0;childLayout=stackLayout;horizontal=1;startSize=30;horizontalStack=0;resizeParent=1;resizeParentMax=0;resizeLast=0;collapsible=1;marginBottom=0;fillColor=#fff2cc;strokeColor=#d6b656;" vertex="1" parent="1">
          <mxGeometry x="35" y="180" width="120" height="90" as="geometry" />
        </mxCell>
        <mxCell id="oMaaJjmdquRnmxGJ-2f0-10" value="Name" style="text;strokeColor=#d6b656;fillColor=#fff2cc;align=left;verticalAlign=middle;spacingLeft=4;spacingRight=4;overflow=hidden;points=[[0,0.5],[1,0.5]];portConstraint=eastwest;rotatable=0;" vertex="1" parent="oMaaJjmdquRnmxGJ-2f0-9">
          <mxGeometry y="30" width="120" height="30" as="geometry" />
        </mxCell>
        <mxCell id="oMaaJjmdquRnmxGJ-2f0-11" value="UpdateSystem()" style="text;strokeColor=#d6b656;fillColor=#fff2cc;align=left;verticalAlign=middle;spacingLeft=4;spacingRight=4;overflow=hidden;points=[[0,0.5],[1,0.5]];portConstraint=eastwest;rotatable=0;" vertex="1" parent="oMaaJjmdquRnmxGJ-2f0-9">
          <mxGeometry y="60" width="120" height="30" as="geometry" />
        </mxCell>
        <mxCell id="oMaaJjmdquRnmxGJ-2f0-12" value="RewindSystem" style="swimlane;fontStyle=0;childLayout=stackLayout;horizontal=1;startSize=30;horizontalStack=0;resizeParent=1;resizeParentMax=0;resizeLast=0;collapsible=1;marginBottom=0;fillColor=#fff2cc;strokeColor=#d6b656;" vertex="1" parent="1">
          <mxGeometry x="200" y="180" width="120" height="90" as="geometry" />
        </mxCell>
        <mxCell id="oMaaJjmdquRnmxGJ-2f0-13" value="Name" style="text;strokeColor=#d6b656;fillColor=#fff2cc;align=left;verticalAlign=middle;spacingLeft=4;spacingRight=4;overflow=hidden;points=[[0,0.5],[1,0.5]];portConstraint=eastwest;rotatable=0;" vertex="1" parent="oMaaJjmdquRnmxGJ-2f0-12">
          <mxGeometry y="30" width="120" height="30" as="geometry" />
        </mxCell>
        <mxCell id="oMaaJjmdquRnmxGJ-2f0-14" value="UpdateSystem()" style="text;strokeColor=#d6b656;fillColor=#fff2cc;align=left;verticalAlign=middle;spacingLeft=4;spacingRight=4;overflow=hidden;points=[[0,0.5],[1,0.5]];portConstraint=eastwest;rotatable=0;" vertex="1" parent="oMaaJjmdquRnmxGJ-2f0-12">
          <mxGeometry y="60" width="120" height="30" as="geometry" />
        </mxCell>
        <mxCell id="oMaaJjmdquRnmxGJ-2f0-15" value="ECSManager" style="swimlane;fontStyle=0;childLayout=stackLayout;horizontal=1;startSize=30;horizontalStack=0;resizeParent=1;resizeParentMax=0;resizeLast=0;collapsible=1;marginBottom=0;fillColor=#fff2cc;strokeColor=#d6b656;" vertex="1" parent="1">
          <mxGeometry x="-160" y="480" width="120" height="50" as="geometry" />
        </mxCell>
        <mxCell id="oMaaJjmdquRnmxGJ-2f0-16" value="" style="text;strokeColor=#d6b656;fillColor=#fff2cc;align=left;verticalAlign=middle;spacingLeft=4;spacingRight=4;overflow=hidden;points=[[0,0.5],[1,0.5]];portConstraint=eastwest;rotatable=0;" vertex="1" parent="oMaaJjmdquRnmxGJ-2f0-15">
          <mxGeometry y="30" width="120" height="10" as="geometry" />
        </mxCell>
        <mxCell id="oMaaJjmdquRnmxGJ-2f0-17" value="" style="text;strokeColor=#d6b656;fillColor=#fff2cc;align=left;verticalAlign=middle;spacingLeft=4;spacingRight=4;overflow=hidden;points=[[0,0.5],[1,0.5]];portConstraint=eastwest;rotatable=0;" vertex="1" parent="oMaaJjmdquRnmxGJ-2f0-15">
          <mxGeometry y="40" width="120" height="10" as="geometry" />
        </mxCell>
        <mxCell id="oMaaJjmdquRnmxGJ-2f0-18" value="IComponent" style="swimlane;fontStyle=0;childLayout=stackLayout;horizontal=1;startSize=30;horizontalStack=0;resizeParent=1;resizeParentMax=0;resizeLast=0;collapsible=1;marginBottom=0;fillColor=#d5e8d4;strokeColor=#82b366;" vertex="1" parent="1">
          <mxGeometry x="-650" y="190" width="110" height="50" as="geometry" />
        </mxCell>
        <mxCell id="oMaaJjmdquRnmxGJ-2f0-19" value="" style="text;strokeColor=#82b366;fillColor=#d5e8d4;align=left;verticalAlign=middle;spacingLeft=4;spacingRight=4;overflow=hidden;points=[[0,0.5],[1,0.5]];portConstraint=eastwest;rotatable=0;" vertex="1" parent="oMaaJjmdquRnmxGJ-2f0-18">
          <mxGeometry y="30" width="110" height="10" as="geometry" />
        </mxCell>
        <mxCell id="oMaaJjmdquRnmxGJ-2f0-20" value="" style="text;strokeColor=#82b366;fillColor=#d5e8d4;align=left;verticalAlign=middle;spacingLeft=4;spacingRight=4;overflow=hidden;points=[[0,0.5],[1,0.5]];portConstraint=eastwest;rotatable=0;" vertex="1" parent="oMaaJjmdquRnmxGJ-2f0-18">
          <mxGeometry y="40" width="110" height="10" as="geometry" />
        </mxCell>
        <mxCell id="oMaaJjmdquRnmxGJ-2f0-21" value="SpeedComponent" style="swimlane;fontStyle=0;childLayout=stackLayout;horizontal=1;startSize=30;horizontalStack=0;resizeParent=1;resizeParentMax=0;resizeLast=0;collapsible=1;marginBottom=0;fillColor=#fff2cc;strokeColor=#d6b656;" vertex="1" parent="1">
          <mxGeometry x="-470" y="240" width="130" height="60" as="geometry" />
        </mxCell>
        <mxCell id="oMaaJjmdquRnmxGJ-2f0-22" value="speed" style="text;strokeColor=#d6b656;fillColor=#fff2cc;align=left;verticalAlign=middle;spacingLeft=4;spacingRight=4;overflow=hidden;points=[[0,0.5],[1,0.5]];portConstraint=eastwest;rotatable=0;" vertex="1" parent="oMaaJjmdquRnmxGJ-2f0-21">
          <mxGeometry y="30" width="130" height="20" as="geometry" />
        </mxCell>
        <mxCell id="oMaaJjmdquRnmxGJ-2f0-23" value="" style="text;strokeColor=#d6b656;fillColor=#fff2cc;align=left;verticalAlign=middle;spacingLeft=4;spacingRight=4;overflow=hidden;points=[[0,0.5],[1,0.5]];portConstraint=eastwest;rotatable=0;" vertex="1" parent="oMaaJjmdquRnmxGJ-2f0-21">
          <mxGeometry y="50" width="130" height="10" as="geometry" />
        </mxCell>
        <mxCell id="oMaaJjmdquRnmxGJ-2f0-24" value="EntityComponent" style="swimlane;fontStyle=0;childLayout=stackLayout;horizontal=1;startSize=30;horizontalStack=0;resizeParent=1;resizeParentMax=0;resizeLast=0;collapsible=1;marginBottom=0;fillColor=#fff2cc;strokeColor=#d6b656;" vertex="1" parent="1">
          <mxGeometry x="-470" y="150" width="130" height="70" as="geometry" />
        </mxCell>
        <mxCell id="oMaaJjmdquRnmxGJ-2f0-25" value="id" style="text;strokeColor=#d6b656;fillColor=#fff2cc;align=left;verticalAlign=middle;spacingLeft=4;spacingRight=4;overflow=hidden;points=[[0,0.5],[1,0.5]];portConstraint=eastwest;rotatable=0;" vertex="1" parent="oMaaJjmdquRnmxGJ-2f0-24">
          <mxGeometry y="30" width="130" height="30" as="geometry" />
        </mxCell>
        <mxCell id="oMaaJjmdquRnmxGJ-2f0-26" value="" style="text;strokeColor=#d6b656;fillColor=#fff2cc;align=left;verticalAlign=middle;spacingLeft=4;spacingRight=4;overflow=hidden;points=[[0,0.5],[1,0.5]];portConstraint=eastwest;rotatable=0;" vertex="1" parent="oMaaJjmdquRnmxGJ-2f0-24">
          <mxGeometry y="60" width="130" height="10" as="geometry" />
        </mxCell>
        <mxCell id="oMaaJjmdquRnmxGJ-2f0-27" value="WorldData" style="swimlane;fontStyle=0;childLayout=stackLayout;horizontal=1;startSize=30;horizontalStack=0;resizeParent=1;resizeParentMax=0;resizeLast=0;collapsible=1;marginBottom=0;fillColor=#fff2cc;strokeColor=#d6b656;" vertex="1" parent="1">
          <mxGeometry x="340" y="700" width="270" height="230" as="geometry" />
        </mxCell>
        <mxCell id="oMaaJjmdquRnmxGJ-2f0-28" value="archetypes" style="text;strokeColor=#d6b656;fillColor=#fff2cc;align=left;verticalAlign=middle;spacingLeft=4;spacingRight=4;overflow=hidden;points=[[0,0.5],[1,0.5]];portConstraint=eastwest;rotatable=0;" vertex="1" parent="oMaaJjmdquRnmxGJ-2f0-27">
          <mxGeometry y="30" width="270" height="30" as="geometry" />
        </mxCell>
        <mxCell id="oMaaJjmdquRnmxGJ-2f0-29" value="GetEntity(id)&#xa;GetDynamicCircles()&#xa;GetLeftSideDynamicCircles()&#xa;GetGhostCircles()&#xa;GetLeftSideGhostCircles&#xa;GetMovingCircles()&#xa;GetLeftSideMovableCircles&#xa;GetPositionsAndSizes()&#xa;AddArchetype(archetype)&#xa;UpdateArchetype(index, archetype)&#xa;UpdatePosition(index, position)" style="text;strokeColor=#d6b656;fillColor=#fff2cc;align=left;verticalAlign=middle;spacingLeft=4;spacingRight=4;overflow=hidden;points=[[0,0.5],[1,0.5]];portConstraint=eastwest;rotatable=0;" vertex="1" parent="oMaaJjmdquRnmxGJ-2f0-27">
          <mxGeometry y="60" width="270" height="170" as="geometry" />
        </mxCell>
        <mxCell id="oMaaJjmdquRnmxGJ-2f0-30" value="RegisterSystem" style="swimlane;fontStyle=0;childLayout=stackLayout;horizontal=1;startSize=30;horizontalStack=0;resizeParent=1;resizeParentMax=0;resizeLast=0;collapsible=1;marginBottom=0;fillColor=#fff2cc;strokeColor=#d6b656;" vertex="1" parent="1">
          <mxGeometry x="30" y="480" width="120" height="80" as="geometry" />
        </mxCell>
        <mxCell id="oMaaJjmdquRnmxGJ-2f0-31" value="toRegister" style="text;strokeColor=#d6b656;fillColor=#fff2cc;align=left;verticalAlign=middle;spacingLeft=4;spacingRight=4;overflow=hidden;points=[[0,0.5],[1,0.5]];portConstraint=eastwest;rotatable=0;" vertex="1" parent="oMaaJjmdquRnmxGJ-2f0-30">
          <mxGeometry y="30" width="120" height="40" as="geometry" />
        </mxCell>
        <mxCell id="oMaaJjmdquRnmxGJ-2f0-32" value="" style="text;strokeColor=#d6b656;fillColor=#fff2cc;align=left;verticalAlign=middle;spacingLeft=4;spacingRight=4;overflow=hidden;points=[[0,0.5],[1,0.5]];portConstraint=eastwest;rotatable=0;" vertex="1" parent="oMaaJjmdquRnmxGJ-2f0-30">
          <mxGeometry y="70" width="120" height="10" as="geometry" />
        </mxCell>
        <mxCell id="oMaaJjmdquRnmxGJ-2f0-33" value="" style="endArrow=block;html=1;rounded=0;exitX=0.5;exitY=1;exitDx=0;exitDy=0;entryX=0.5;entryY=0;entryDx=0;entryDy=0;endFill=0;" edge="1" parent="1" source="oMaaJjmdquRnmxGJ-2f0-5" target="oMaaJjmdquRnmxGJ-2f0-9">
          <mxGeometry width="50" height="50" relative="1" as="geometry">
            <mxPoint x="40" y="390" as="sourcePoint" />
            <mxPoint x="90" y="340" as="targetPoint" />
          </mxGeometry>
        </mxCell>
        <mxCell id="oMaaJjmdquRnmxGJ-2f0-34" value="" style="endArrow=block;html=1;rounded=0;entryX=0.5;entryY=0;entryDx=0;entryDy=0;endFill=0;" edge="1" parent="1" target="oMaaJjmdquRnmxGJ-2f0-12">
          <mxGeometry width="50" height="50" relative="1" as="geometry">
            <mxPoint x="95" y="150" as="sourcePoint" />
            <mxPoint x="110" y="190" as="targetPoint" />
            <Array as="points">
              <mxPoint x="95" y="160" />
              <mxPoint x="260" y="160" />
            </Array>
          </mxGeometry>
        </mxCell>
        <mxCell id="oMaaJjmdquRnmxGJ-2f0-35" value="" style="endArrow=block;html=1;rounded=0;entryX=0.5;entryY=0;entryDx=0;entryDy=0;endFill=0;" edge="1" parent="1" target="oMaaJjmdquRnmxGJ-2f0-1">
          <mxGeometry width="50" height="50" relative="1" as="geometry">
            <mxPoint x="120" y="160" as="sourcePoint" />
            <mxPoint x="242.67000000000007" y="190" as="targetPoint" />
            <Array as="points">
              <mxPoint x="96" y="160" />
              <mxPoint x="-80" y="160" />
            </Array>
          </mxGeometry>
        </mxCell>
        <mxCell id="oMaaJjmdquRnmxGJ-2f0-36" value="" style="endArrow=block;html=1;rounded=0;entryX=0.008;entryY=0.314;entryDx=0;entryDy=0;endFill=0;exitX=1;exitY=0.25;exitDx=0;exitDy=0;entryPerimeter=0;" edge="1" parent="1" source="oMaaJjmdquRnmxGJ-2f0-18" target="oMaaJjmdquRnmxGJ-2f0-24">
          <mxGeometry width="50" height="50" relative="1" as="geometry">
            <mxPoint x="-490" y="220" as="sourcePoint" />
            <mxPoint x="-325" y="250" as="targetPoint" />
            <Array as="points">
              <mxPoint x="-500" y="203" />
              <mxPoint x="-500" y="172" />
            </Array>
          </mxGeometry>
        </mxCell>
        <mxCell id="oMaaJjmdquRnmxGJ-2f0-41" value="SizeComponent" style="swimlane;fontStyle=0;childLayout=stackLayout;horizontal=1;startSize=30;horizontalStack=0;resizeParent=1;resizeParentMax=0;resizeLast=0;collapsible=1;marginBottom=0;fillColor=#fff2cc;strokeColor=#d6b656;" vertex="1" parent="1">
          <mxGeometry x="-470" y="320" width="130" height="60" as="geometry" />
        </mxCell>
        <mxCell id="oMaaJjmdquRnmxGJ-2f0-42" value="size" style="text;strokeColor=#d6b656;fillColor=#fff2cc;align=left;verticalAlign=middle;spacingLeft=4;spacingRight=4;overflow=hidden;points=[[0,0.5],[1,0.5]];portConstraint=eastwest;rotatable=0;" vertex="1" parent="oMaaJjmdquRnmxGJ-2f0-41">
          <mxGeometry y="30" width="130" height="20" as="geometry" />
        </mxCell>
        <mxCell id="oMaaJjmdquRnmxGJ-2f0-43" value="" style="text;strokeColor=#d6b656;fillColor=#fff2cc;align=left;verticalAlign=middle;spacingLeft=4;spacingRight=4;overflow=hidden;points=[[0,0.5],[1,0.5]];portConstraint=eastwest;rotatable=0;" vertex="1" parent="oMaaJjmdquRnmxGJ-2f0-41">
          <mxGeometry y="50" width="130" height="10" as="geometry" />
        </mxCell>
        <mxCell id="oMaaJjmdquRnmxGJ-2f0-44" value="PositionComponent" style="swimlane;fontStyle=0;childLayout=stackLayout;horizontal=1;startSize=30;horizontalStack=0;resizeParent=1;resizeParentMax=0;resizeLast=0;collapsible=1;marginBottom=0;fillColor=#fff2cc;strokeColor=#d6b656;" vertex="1" parent="1">
          <mxGeometry x="-470" y="400" width="130" height="70" as="geometry" />
        </mxCell>
        <mxCell id="oMaaJjmdquRnmxGJ-2f0-45" value="position&#xa;side" style="text;strokeColor=#d6b656;fillColor=#fff2cc;align=left;verticalAlign=middle;spacingLeft=4;spacingRight=4;overflow=hidden;points=[[0,0.5],[1,0.5]];portConstraint=eastwest;rotatable=0;" vertex="1" parent="oMaaJjmdquRnmxGJ-2f0-44">
          <mxGeometry y="30" width="130" height="30" as="geometry" />
        </mxCell>
        <mxCell id="oMaaJjmdquRnmxGJ-2f0-46" value="" style="text;strokeColor=#d6b656;fillColor=#fff2cc;align=left;verticalAlign=middle;spacingLeft=4;spacingRight=4;overflow=hidden;points=[[0,0.5],[1,0.5]];portConstraint=eastwest;rotatable=0;" vertex="1" parent="oMaaJjmdquRnmxGJ-2f0-44">
          <mxGeometry y="60" width="130" height="10" as="geometry" />
        </mxCell>
        <mxCell id="oMaaJjmdquRnmxGJ-2f0-47" value="StateComponent" style="swimlane;fontStyle=0;childLayout=stackLayout;horizontal=1;startSize=30;horizontalStack=0;resizeParent=1;resizeParentMax=0;resizeLast=0;collapsible=1;marginBottom=0;fillColor=#fff2cc;strokeColor=#d6b656;" vertex="1" parent="1">
          <mxGeometry x="-470" y="480" width="130" height="60" as="geometry" />
        </mxCell>
        <mxCell id="oMaaJjmdquRnmxGJ-2f0-48" value="state" style="text;strokeColor=#d6b656;fillColor=#fff2cc;align=left;verticalAlign=middle;spacingLeft=4;spacingRight=4;overflow=hidden;points=[[0,0.5],[1,0.5]];portConstraint=eastwest;rotatable=0;" vertex="1" parent="oMaaJjmdquRnmxGJ-2f0-47">
          <mxGeometry y="30" width="130" height="20" as="geometry" />
        </mxCell>
        <mxCell id="oMaaJjmdquRnmxGJ-2f0-49" value="" style="text;strokeColor=#d6b656;fillColor=#fff2cc;align=left;verticalAlign=middle;spacingLeft=4;spacingRight=4;overflow=hidden;points=[[0,0.5],[1,0.5]];portConstraint=eastwest;rotatable=0;" vertex="1" parent="oMaaJjmdquRnmxGJ-2f0-47">
          <mxGeometry y="50" width="130" height="10" as="geometry" />
        </mxCell>
        <mxCell id="oMaaJjmdquRnmxGJ-2f0-50" value="InContactsComponent" style="swimlane;fontStyle=0;childLayout=stackLayout;horizontal=1;startSize=30;horizontalStack=0;resizeParent=1;resizeParentMax=0;resizeLast=0;collapsible=1;marginBottom=0;fillColor=#fff2cc;strokeColor=#d6b656;" vertex="1" parent="1">
          <mxGeometry x="-470" y="550" width="130" height="60" as="geometry" />
        </mxCell>
        <mxCell id="oMaaJjmdquRnmxGJ-2f0-51" value="contacts" style="text;strokeColor=#d6b656;fillColor=#fff2cc;align=left;verticalAlign=middle;spacingLeft=4;spacingRight=4;overflow=hidden;points=[[0,0.5],[1,0.5]];portConstraint=eastwest;rotatable=0;" vertex="1" parent="oMaaJjmdquRnmxGJ-2f0-50">
          <mxGeometry y="30" width="130" height="20" as="geometry" />
        </mxCell>
        <mxCell id="oMaaJjmdquRnmxGJ-2f0-52" value="" style="text;strokeColor=#d6b656;fillColor=#fff2cc;align=left;verticalAlign=middle;spacingLeft=4;spacingRight=4;overflow=hidden;points=[[0,0.5],[1,0.5]];portConstraint=eastwest;rotatable=0;" vertex="1" parent="oMaaJjmdquRnmxGJ-2f0-50">
          <mxGeometry y="50" width="130" height="10" as="geometry" />
        </mxCell>
        <mxCell id="oMaaJjmdquRnmxGJ-2f0-53" value="" style="endArrow=block;html=1;rounded=0;entryX=0;entryY=0.5;entryDx=0;entryDy=0;endFill=0;exitX=1;exitY=0.25;exitDx=0;exitDy=0;" edge="1" parent="1" source="oMaaJjmdquRnmxGJ-2f0-18" target="oMaaJjmdquRnmxGJ-2f0-21">
          <mxGeometry width="50" height="50" relative="1" as="geometry">
            <mxPoint x="-530" y="212.5" as="sourcePoint" />
            <mxPoint x="-458.96000000000004" y="181.98000000000002" as="targetPoint" />
            <Array as="points">
              <mxPoint x="-500" y="203" />
              <mxPoint x="-500" y="270" />
            </Array>
          </mxGeometry>
        </mxCell>
        <mxCell id="oMaaJjmdquRnmxGJ-2f0-54" value="" style="endArrow=block;html=1;rounded=0;entryX=0;entryY=0.25;entryDx=0;entryDy=0;endFill=0;" edge="1" parent="1" target="oMaaJjmdquRnmxGJ-2f0-41">
          <mxGeometry width="50" height="50" relative="1" as="geometry">
            <mxPoint x="-500" y="270" as="sourcePoint" />
            <mxPoint x="-460" y="280" as="targetPoint" />
            <Array as="points">
              <mxPoint x="-500" y="335" />
            </Array>
          </mxGeometry>
        </mxCell>
        <mxCell id="oMaaJjmdquRnmxGJ-2f0-55" value="" style="endArrow=block;html=1;rounded=0;entryX=0;entryY=0.25;entryDx=0;entryDy=0;endFill=0;" edge="1" parent="1">
          <mxGeometry width="50" height="50" relative="1" as="geometry">
            <mxPoint x="-500" y="330" as="sourcePoint" />
            <mxPoint x="-470" y="425" as="targetPoint" />
            <Array as="points">
              <mxPoint x="-500" y="425" />
            </Array>
          </mxGeometry>
        </mxCell>
        <mxCell id="oMaaJjmdquRnmxGJ-2f0-56" value="" style="endArrow=block;html=1;rounded=0;entryX=0;entryY=0.25;entryDx=0;entryDy=0;endFill=0;" edge="1" parent="1">
          <mxGeometry width="50" height="50" relative="1" as="geometry">
            <mxPoint x="-500" y="400" as="sourcePoint" />
            <mxPoint x="-470" y="495" as="targetPoint" />
            <Array as="points">
              <mxPoint x="-500" y="495" />
            </Array>
          </mxGeometry>
        </mxCell>
        <mxCell id="oMaaJjmdquRnmxGJ-2f0-57" value="" style="endArrow=block;html=1;rounded=0;entryX=0;entryY=0.25;entryDx=0;entryDy=0;endFill=0;" edge="1" parent="1">
          <mxGeometry width="50" height="50" relative="1" as="geometry">
            <mxPoint x="-500" y="470" as="sourcePoint" />
            <mxPoint x="-470" y="565" as="targetPoint" />
            <Array as="points">
              <mxPoint x="-500" y="565" />
            </Array>
          </mxGeometry>
        </mxCell>
        <mxCell id="oMaaJjmdquRnmxGJ-2f0-58" value="FixedUpdateSystem" style="swimlane;fontStyle=0;childLayout=stackLayout;horizontal=1;startSize=30;horizontalStack=0;resizeParent=1;resizeParentMax=0;resizeLast=0;collapsible=1;marginBottom=0;fillColor=#fff2cc;strokeColor=#d6b656;" vertex="1" parent="1">
          <mxGeometry x="360" y="180" width="120" height="90" as="geometry" />
        </mxCell>
        <mxCell id="oMaaJjmdquRnmxGJ-2f0-59" value="Name" style="text;strokeColor=#d6b656;fillColor=#fff2cc;align=left;verticalAlign=middle;spacingLeft=4;spacingRight=4;overflow=hidden;points=[[0,0.5],[1,0.5]];portConstraint=eastwest;rotatable=0;" vertex="1" parent="oMaaJjmdquRnmxGJ-2f0-58">
          <mxGeometry y="30" width="120" height="30" as="geometry" />
        </mxCell>
        <mxCell id="oMaaJjmdquRnmxGJ-2f0-60" value="UpdateSystem()" style="text;strokeColor=#d6b656;fillColor=#fff2cc;align=left;verticalAlign=middle;spacingLeft=4;spacingRight=4;overflow=hidden;points=[[0,0.5],[1,0.5]];portConstraint=eastwest;rotatable=0;" vertex="1" parent="oMaaJjmdquRnmxGJ-2f0-58">
          <mxGeometry y="60" width="120" height="30" as="geometry" />
        </mxCell>
        <mxCell id="oMaaJjmdquRnmxGJ-2f0-61" value="" style="endArrow=block;html=1;rounded=0;entryX=0.5;entryY=0;entryDx=0;entryDy=0;endFill=0;" edge="1" parent="1">
          <mxGeometry width="50" height="50" relative="1" as="geometry">
            <mxPoint x="210" y="160" as="sourcePoint" />
            <mxPoint x="405" y="180" as="targetPoint" />
            <Array as="points">
              <mxPoint x="240" y="160" />
              <mxPoint x="405" y="160" />
            </Array>
          </mxGeometry>
        </mxCell>
        <mxCell id="oMaaJjmdquRnmxGJ-2f0-62" value="" style="endArrow=diamondThin;html=1;rounded=0;exitX=0.467;exitY=1.005;exitDx=0;exitDy=0;exitPerimeter=0;entryX=0.5;entryY=0;entryDx=0;entryDy=0;endFill=0;" edge="1" parent="1" source="oMaaJjmdquRnmxGJ-2f0-3" target="oMaaJjmdquRnmxGJ-2f0-30">
          <mxGeometry width="50" height="50" relative="1" as="geometry">
            <mxPoint x="120" y="670" as="sourcePoint" />
            <mxPoint x="170" y="620" as="targetPoint" />
            <Array as="points">
              <mxPoint x="-84" y="370" />
              <mxPoint x="90" y="370" />
            </Array>
          </mxGeometry>
        </mxCell>
        <mxCell id="oMaaJjmdquRnmxGJ-2f0-64" value="" style="endArrow=none;html=1;rounded=0;entryX=0.5;entryY=1;entryDx=0;entryDy=0;" edge="1" parent="1" target="oMaaJjmdquRnmxGJ-2f0-9">
          <mxGeometry width="50" height="50" relative="1" as="geometry">
            <mxPoint x="95" y="370" as="sourcePoint" />
            <mxPoint x="170" y="620" as="targetPoint" />
          </mxGeometry>
        </mxCell>
        <mxCell id="oMaaJjmdquRnmxGJ-2f0-65" value="" style="endArrow=none;html=1;rounded=0;entryX=0.497;entryY=1.028;entryDx=0;entryDy=0;entryPerimeter=0;" edge="1" parent="1" target="oMaaJjmdquRnmxGJ-2f0-14">
          <mxGeometry width="50" height="50" relative="1" as="geometry">
            <mxPoint x="90" y="370" as="sourcePoint" />
            <mxPoint x="260" y="370" as="targetPoint" />
            <Array as="points">
              <mxPoint x="260" y="370" />
            </Array>
          </mxGeometry>
        </mxCell>
        <mxCell id="oMaaJjmdquRnmxGJ-2f0-66" value="" style="endArrow=none;html=1;rounded=0;entryX=0.497;entryY=1.028;entryDx=0;entryDy=0;entryPerimeter=0;" edge="1" parent="1">
          <mxGeometry width="50" height="50" relative="1" as="geometry">
            <mxPoint x="260" y="369.16" as="sourcePoint" />
            <mxPoint x="429.6400000000001" y="270.00000000000006" as="targetPoint" />
            <Array as="points">
              <mxPoint x="430" y="369.16" />
            </Array>
          </mxGeometry>
        </mxCell>
        <mxCell id="oMaaJjmdquRnmxGJ-2f0-67" value="" style="endArrow=open;html=1;rounded=0;exitX=0;exitY=0.25;exitDx=0;exitDy=0;endFill=0;dashed=1;" edge="1" parent="1" source="oMaaJjmdquRnmxGJ-2f0-30">
          <mxGeometry width="50" height="50" relative="1" as="geometry">
            <mxPoint x="-100" y="550" as="sourcePoint" />
            <mxPoint x="-40" y="500" as="targetPoint" />
          </mxGeometry>
        </mxCell>
        <mxCell id="oMaaJjmdquRnmxGJ-2f0-69" value="" style="endArrow=open;html=1;rounded=0;endFill=0;startArrow=none;startFill=0;entryX=1.004;entryY=0.175;entryDx=0;entryDy=0;entryPerimeter=0;dashed=1;" edge="1" parent="1" target="oMaaJjmdquRnmxGJ-2f0-71">
          <mxGeometry width="50" height="50" relative="1" as="geometry">
            <mxPoint x="-180" y="218" as="sourcePoint" />
            <mxPoint x="-180" y="220" as="targetPoint" />
          </mxGeometry>
        </mxCell>
        <mxCell id="oMaaJjmdquRnmxGJ-2f0-73" value="&lt;font style=&quot;font-size: 20px&quot;&gt;Components&lt;/font&gt;" style="text;html=1;strokeColor=none;fillColor=none;align=center;verticalAlign=middle;whiteSpace=wrap;rounded=0;" vertex="1" parent="1">
          <mxGeometry x="-443" y="90" width="60" height="30" as="geometry" />
        </mxCell>
        <mxCell id="oMaaJjmdquRnmxGJ-2f0-74" value="&lt;font style=&quot;font-size: 20px&quot;&gt;Systems&lt;/font&gt;" style="text;html=1;strokeColor=none;fillColor=none;align=center;verticalAlign=middle;whiteSpace=wrap;rounded=0;" vertex="1" parent="1">
          <mxGeometry x="-140" y="110" width="60" height="30" as="geometry" />
        </mxCell>
      </root>
    </mxGraphModel>
  </diagram>
</mxfile>
